<svg xmlns="http://www.w3.org/2000/svg" viewBox="0 0 1200 630">
  <rect width="1200" height="630" fill="#000"/>
  <line x1="0" y1="1" x2="1200" y2="1" stroke="#1a1a1a" stroke-width="2"/>
  <line x1="0" y1="629" x2="1200" y2="629" stroke="#1a1a1a" stroke-width="2"/>
  <g stroke="#0d0d0d" stroke-width="1">
    <line x1="60" y1="0" x2="60" y2="630"/>
    <line x1="120" y1="0" x2="120" y2="630"/>
    <line x1="1080" y1="0" x2="1080" y2="630"/>
    <line x1="1140" y1="0" x2="1140" y2="630"/>
    <line x1="0" y1="60" x2="1200" y2="60"/>
    <line x1="0" y1="570" x2="1200" y2="570"/>
  </g>
  <text x="120" y="260" font-family="monospace" font-size="72" font-weight="bold" fill="#ffffff" letter-spacing="-2">AAYUSH JAISWAL</text>
  <text x="120" y="320" font-family="monospace" font-size="24" fill="#ff8800">AI Solutions Engineer @ CoreWeave</text>
  <text x="120" y="400" font-family="monospace" font-size="16" fill="#666">6+ YEARS    847+ CITATIONS    20+ ACCOUNTS    10M+ USERS</text>
  <circle cx="120" cy="460" r="5" fill="#3dff91"/>
  <text x="135" y="465" font-family="monospace" font-size="14" fill="#3dff91">AVAILABLE</text>
  <text x="120" y="540" font-family="monospace" font-size="16" fill="#333">aajais.github.io</text>
  <rect x="0" y="0" width="4" height="40" fill="#ff8800"/>
  <rect x="0" y="0" width="40" height="4" fill="#ff8800"/>
  <rect x="1196" y="590" width="4" height="40" fill="#3dff91"/>
  <rect x="1160" y="626" width="40" height="4" fill="#3dff91"/>
</svg>